<?xml version="1.0" encoding="UTF-8" standalone="no"?>
<svg width="100px" height="97px" viewBox="0 0 100 97" version="1.1" xmlns="http://www.w3.org/2000/svg" xmlns:xlink="http://www.w3.org/1999/xlink" xmlns:sketch="http://www.bohemiancoding.com/sketch/ns">
    <!-- Generator: Sketch 3.1 (8751) - http://www.bohemiancoding.com/sketch -->
    <title>Group</title>
    <desc>Created with Sketch.</desc>
    <defs></defs>
    <g id="Page-1" stroke="none" stroke-width="1" fill="none" fill-rule="evenodd" sketch:type="MSPage">
        <g id="Artboard-4" sketch:type="MSArtboardGroup" transform="translate(-42.000000, -12.000000)">
            <g id="Group" sketch:type="MSLayerGroup" transform="translate(46.000000, 15.000000)">
                <ellipse id="Oval-34" fill="#FFED5D" sketch:type="MSShapeGroup" cx="46" cy="47.3709677" rx="28.75" ry="28.7096774"></ellipse>
                <path d="M45.9999992,71.7741941 C26.59375,71.7741945 17.6554937,52.3032993 17.8565146,53.265295 C20.5789769,66.2937716 32.1449598,76.0806452 46,76.0806452 C59.9511646,76.0806452 71.5813994,66.1575005 74.1988704,52.9936597 C74.3775942,52.094818 65.4062484,71.7741937 45.9999992,71.7741941 Z" id="Oval-35" fill="#EDDD57" sketch:type="MSShapeGroup"></path>
                <g id="Oval-38-+-Oval-39" transform="translate(36.656250, 50.959677)" sketch:type="MSShapeGroup">
                    <path d="M9.34375,9.33064516 C16.171875,9.33064516 18.328125,0.358870968 18.328125,0.358870968 L0.359375,0.358870968 C0.359375,0.358870968 2.515625,9.33064516 9.34375,9.33064516 Z" id="Oval-38" fill="#FFFFFF"></path>
                    <path d="M2.49640791,5.16586565 C3.90079311,7.29682056 6.09273447,9.33064516 9.34375,9.33064516 C12.6857276,9.33064516 14.908537,7.18141728 16.3071307,4.98681033 C17.7660585,2.69753002 0.951155497,2.82116476 2.49640791,5.16586565 Z" id="Oval-39" fill="#F6BDE3"></path>
                </g>
                <g transform="translate(28.750000, 32.298387)" sketch:type="MSShapeGroup">
                    <ellipse id="Oval-41" fill="#FFFFFF" cx="6.19230769" cy="6.10080645" rx="6.19230769" ry="6.10080645"></ellipse>
                    <path d="M10.5271264,10.45746 C9.41017085,11.5363501 7.88009471,12.2016129 6.19230769,12.2016129 C4.50452067,12.2016129 2.97444454,11.5363501 1.85748897,10.45746 C1.79961154,10.1761858 1.76923077,9.88507916 1.76923077,9.58698157 C1.76923077,7.18027988 3.74950976,5.22926267 6.19230769,5.22926267 C8.63510562,5.22926267 10.6153846,7.18027988 10.6153846,9.58698157 C10.6153846,9.88507916 10.5850038,10.1761858 10.5271264,10.45746 Z" id="Oval-36" fill="#C6C6C6"></path>
                    <ellipse id="Oval-41" fill="#F1F1F1" cx="8.40384615" cy="6.53657834" rx="1.32692308" ry="1.30731567"></ellipse>
                    <ellipse id="Oval-43" fill="#FFFFFF" cx="28.3076923" cy="6.10080645" rx="6.19230769" ry="6.10080645"></ellipse>
                    <path d="M32.642511,10.45746 C31.5255555,11.5363501 29.9954793,12.2016129 28.3076923,12.2016129 C26.6199053,12.2016129 25.0898292,11.5363501 23.9728736,10.45746 C23.9149962,10.1761858 23.8846154,9.88507916 23.8846154,9.58698157 C23.8846154,7.18027988 25.8648944,5.22926267 28.3076923,5.22926267 C30.7504902,5.22926267 32.7307692,7.18027988 32.7307692,9.58698157 C32.7307692,9.88507916 32.7003885,10.1761858 32.642511,10.45746 Z" id="Oval-37" fill="#C6C6C6"></path>
                    <ellipse id="Oval-42" fill="#F1F1F1" cx="30.5192308" cy="6.53657834" rx="1.32692308" ry="1.30731567"></ellipse>
                </g>
                <path d="M46.000106,-0.229976794 C45.0077194,-0.229976794 44.203231,0.570605107 44.203231,1.57041321 L44.203231,10.1712461 C44.203231,11.165574 45.0008006,11.9716361 46.000106,11.9716361 C46.9924927,11.9716361 47.796981,11.1710542 47.796981,10.1712461 L47.796981,1.57041321 C47.796981,0.576085268 46.9994114,-0.229976794 46.000106,-0.229976794 Z M82.7398178,17.4195182 C82.1152887,16.6482889 80.9868388,16.5269066 80.2098419,17.1561062 L73.5257394,22.5687857 C72.7530015,23.1945366 72.6285004,24.3216359 73.2573837,25.098242 C73.8819128,25.8694713 75.0103627,25.9908537 75.7873596,25.361654 L82.4714621,19.9489745 C83.2442001,19.3232237 83.3687011,18.1961244 82.7398178,17.4195182 Z M91.8460195,57.2078985 C92.0692579,56.2409467 91.4701654,55.2769856 90.4959823,55.0520777 L82.1155882,53.1173113 C81.1467448,52.8936361 80.1819279,53.4894396 79.9571331,54.4631328 C79.7338947,55.4300847 80.3329872,56.3940458 81.3071703,56.6189537 L89.6875644,58.5537201 C90.6564078,58.7773952 91.6212247,58.1815918 91.8460195,57.2078985 Z M66.4323484,89.047193 C67.3242997,88.6121594 67.696417,87.5399366 67.25813,86.6413151 L63.487773,78.9109377 C63.0518883,78.0172416 61.9816831,77.6423894 61.0835134,78.080456 C60.1915622,78.5154897 59.8194448,79.5877124 60.2577319,80.486334 L64.0280888,88.2167114 C64.4639735,89.1104074 65.5341787,89.4852597 66.4323484,89.047193 Z M25.5678637,89.0471931 C26.4598149,89.4822267 27.5338362,89.115333 27.9721232,88.2167114 L31.7424802,80.486334 C32.1783649,79.592638 31.8148684,78.5185227 30.9166987,78.080456 C30.0247475,77.6454224 28.9507261,78.0123161 28.5124391,78.9109377 L24.7420821,86.6413151 C24.3061975,87.5350111 24.6696939,88.6091264 25.5678637,89.0471931 Z M0.154192556,57.2078986 C0.377430981,58.1748504 1.33846452,58.7786281 2.31264761,58.5537202 L10.6930417,56.6189537 C11.6618851,56.3952786 12.2678737,55.4368262 12.0430789,54.4631329 C11.8198405,53.496181 10.8588069,52.8924034 9.88462386,53.1173113 L1.50422976,55.0520777 C0.535386373,55.2757529 -0.0706022469,56.2342053 0.154192556,57.2078986 Z M9.26039415,17.4195183 C8.63586499,18.1907476 8.75175306,19.3197749 9.52874989,19.9489746 L16.2128524,25.3616541 C16.9855904,25.9874049 18.1139451,25.8748482 18.7428283,25.0982421 C19.3673575,24.3270128 19.2514694,23.1979854 18.4744726,22.5687858 L11.79037,17.1561063 C11.0176321,16.5303554 9.88927741,16.6429121 9.26039415,17.4195183 Z" id="Rectangle-4" fill="#FFED5D" sketch:type="MSShapeGroup"></path>
            </g>
        </g>
    </g>
</svg>