<?xml version="1.0" encoding="UTF-8" standalone="no"?>
<svg width="122px" height="79px" viewBox="0 0 122 79" version="1.1" xmlns="http://www.w3.org/2000/svg" xmlns:xlink="http://www.w3.org/1999/xlink" xmlns:sketch="http://www.bohemiancoding.com/sketch/ns">
    <!-- Generator: Sketch 3.1 (8751) - http://www.bohemiancoding.com/sketch -->
    <title>Oval 34 + Oval 35 + Rectangle 6 + Oval 1 + Oval 2 + Oval 4 + Oval 5 + Oval 9 + Oval 4 + Oval 5 + Oval 8 + Oval 38 + Oval 40</title>
    <desc>Created with Sketch.</desc>
    <defs></defs>
    <g id="Page-1" stroke="none" stroke-width="1" fill="none" fill-rule="evenodd" sketch:type="MSPage">
        <g id="Artboard-17" sketch:type="MSArtboardGroup" transform="translate(-32.000000, -18.000000)">
            <g id="Oval-34-+-Oval-35-+-Rectangle-6-+-Oval-1-+-Oval-2-+-Oval-4-+-Oval-5-+-Oval-9-+-Oval-4-+-Oval-5-+-Oval-8-+-Oval-38-+-Oval-40" sketch:type="MSLayerGroup" transform="translate(36.000000, 19.879959)">
                <g id="Oval-34-+-Oval-35-+-Rectangle-6" transform="translate(51.451327, -0.035473)" sketch:type="MSShapeGroup">
                    <ellipse id="Oval-34" fill="#FFED5D" cx="31.2212389" cy="32.398317" rx="19.5132743" ry="19.6353436"></ellipse>
                    <path d="M31.2212384,49.0883594 C18.0497788,49.0883597 11.9831823,35.7716752 12.1196198,36.4296106 C13.9674164,45.3401466 21.8175102,52.0336606 31.2212389,52.0336606 C40.6902094,52.0336606 48.5839124,45.2469471 50.3604491,36.2438317 C50.481753,35.629089 44.392698,49.0883591 31.2212384,49.0883594 Z" id="Oval-35" fill="#F5E458"></path>
                    <path d="M31.2213109,-0.1572875 C30.5477557,-0.1572875 30.0017312,0.390252638 30.0017312,1.05615021 L30.0017312,6.97429583 C30.0017312,7.64445897 30.5430598,8.18773354 31.2213109,8.18773354 C31.8948661,8.18773354 32.4408905,7.6401934 32.4408905,6.97429583 L32.4408905,1.05615021 C32.4408905,0.385987067 31.899562,-0.1572875 31.2213109,-0.1572875 Z M56.1820617,11.913691 C55.7581796,11.3902403 54.9890367,11.3104778 54.4715371,11.7295407 L49.8722742,15.4539504 C49.3514596,15.8756978 49.269925,16.6382828 49.6967623,17.1653829 C50.1206443,17.6888337 50.8897872,17.7685961 51.4072868,17.3495332 L56.0065498,13.6251235 C56.5273644,13.2033762 56.608899,12.4407912 56.1820617,11.913691 Z M62.3689093,39.1260664 C62.5204263,38.4697743 62.1097483,37.8145748 61.4609177,37.6647804 L55.6944537,36.3334873 C55.0414668,36.1827334 54.3903439,36.5879775 54.2377706,37.2488451 C54.0862537,37.9051372 54.4969316,38.5603368 55.1457623,38.7101311 L60.9122262,40.0414242 C61.5652131,40.1921781 62.216336,39.786934 62.3689093,39.1260664 Z M45.1030559,60.9018418 C45.7084434,60.6065747 45.9591811,59.8750875 45.6672708,59.2765827 L43.0729265,53.9573887 C42.7791463,53.35505 42.0544476,53.1040609 41.4448395,53.4013866 C40.8394521,53.6966538 40.5887144,54.428141 40.8806247,55.0266457 L43.4749689,60.3458398 C43.7687491,60.9481784 44.4934479,61.1991676 45.1030559,60.9018418 Z M17.3395659,60.9018419 C17.9449533,61.197109 18.6757426,60.9443446 18.9676529,60.3458398 L21.5619972,55.0266458 C21.8557774,54.4243071 21.6073904,53.6987124 20.9977823,53.4013866 C20.3923949,53.1061195 19.6616056,53.3588839 19.3696953,53.9573887 L16.775351,59.2765827 C16.4815709,59.8789214 16.7299578,60.6045161 17.3395659,60.9018419 Z M0.073712469,39.1260664 C0.22522943,39.7823585 0.881564916,40.1912186 1.53039557,40.0414243 L7.29685951,38.7101312 C7.94984641,38.5593773 8.35742447,37.9097128 8.20485116,37.2488452 C8.0533342,36.5925531 7.39699871,36.183693 6.74816805,36.3334874 L0.981704118,37.6647805 C0.328717216,37.8155344 -0.0788608407,38.4651988 0.073712469,39.1260664 Z M6.26056009,11.9136911 C5.83667804,12.4371418 5.91857235,13.2060606 6.43607196,13.6251235 L11.0353349,17.3495333 C11.5561495,17.7712806 12.3190222,17.6924831 12.7458595,17.165383 C13.1697415,16.6419322 13.0878472,15.8730134 12.5703476,15.4539505 L7.97108464,11.7295407 C7.45027006,11.3077934 6.68739736,11.3865909 6.26056009,11.9136911 Z" id="Rectangle-4" fill="#FFED5D"></path>
                </g>
                <g id="Oval-1-+-Oval-2-+-Oval-4-+-Oval-5-+-Oval-9-+-Oval-4-+-Oval-5-+-Oval-8-+-Oval-38-+-Oval-40" transform="translate(0.000000, 14.202899)" sketch:type="MSShapeGroup">
                    <g id="Oval-1-+-Oval-2" transform="translate(-0.147285, 0.029568)" fill="#FFFFFF">
                        <path d="M77.2431119,56.2139423 C84.8996513,55.5670573 90.9215797,48.8195097 90.9215797,40.5909753 C90.9215797,32.3133908 84.8276442,25.5345019 77.1060172,24.9570914 C75.7131151,10.9441491 63.8778895,0 49.4838686,0 C37.5334547,0 27.3467915,7.5436865 23.4354008,18.1242143 C22.1064345,17.835363 20.7263948,17.6831972 19.310778,17.6831972 C8.64572979,17.6831972 0,26.3199649 0,36.9739577 C0,47.6279506 8.64572979,56.2647183 19.310778,56.2647183 L77.2431119,56.2647183 L77.2431119,56.2139423 Z" id="Oval-1"></path>
                    </g>
                    <g id="Oval-4-+-Oval-5-+-Oval-9-+-Oval-4-+-Oval-5-+-Oval-8" transform="translate(27.930440, 16.144220)">
                        <g id="Oval-4-+-Oval-5-+-Oval-9" transform="translate(7.061870, 7.101372) rotate(352.000000) translate(-7.061870, -7.101372) translate(1.086442, 1.092519)">
                            <ellipse id="Oval-4" fill="#DDDCDC" cx="5.97542869" cy="6.00885341" rx="5.97542869" ry="6.00885341"></ellipse>
                            <ellipse id="Oval-5" fill="#A4A4A4" cx="4.34576632" cy="4.37007521" rx="3.25932474" ry="3.2775564"></ellipse>
                            <ellipse id="Oval-6" fill="#FFFFFF" cx="2.17288316" cy="3.2775564" rx="1.08644158" ry="1.0925188"></ellipse>
                        </g>
                        <g id="Oval-4-+-Oval-5-+-Oval-8" transform="translate(27.975871, 7.101372) rotate(352.000000) translate(-27.975871, -7.101372) translate(22.000442, 1.092519)">
                            <ellipse id="Oval-4" fill="#DDDCDC" cx="5.97542869" cy="6.00885341" rx="5.97542869" ry="6.00885341"></ellipse>
                            <ellipse id="Oval-5" fill="#A4A4A4" cx="4.34576632" cy="4.37007521" rx="3.25932474" ry="3.2775564"></ellipse>
                            <ellipse id="Oval-6" fill="#FFFFFF" cx="2.17288316" cy="3.2775564" rx="1.08644158" ry="1.0925188"></ellipse>
                        </g>
                    </g>
                    <g id="Oval-38-+-Oval-40" transform="translate(33.091037, 35.809559)">
                        <path d="M12.2224678,12.0177068 C21.5512402,12.0177068 24.4971683,-0.0630299308 24.4971683,-0.0630299308 L-0.0522327682,-0.0630299308 C-0.0522327682,-0.0630299308 2.89369536,12.0177068 12.2224678,12.0177068 Z" id="Oval-38" fill="#E8E8E8"></path>
                        <path d="M2.86744044,6.40971849 C4.78615018,9.27910695 7.78084082,12.0177068 12.2224678,12.0177068 C16.7883695,12.0177068 19.8252329,9.12371331 21.7360302,6.16861566 C23.7292576,3.08603777 0.756274043,3.2525153 2.86744044,6.40971849 Z" id="Oval-39" fill="#F6BDE3"></path>
                    </g>
                </g>
            </g>
        </g>
    </g>
</svg>