<?xml version="1.0" encoding="UTF-8" standalone="no"?>
<svg width="110px" height="77px" viewBox="0 0 110 77" version="1.1" xmlns="http://www.w3.org/2000/svg" xmlns:xlink="http://www.w3.org/1999/xlink" xmlns:sketch="http://www.bohemiancoding.com/sketch/ns">
    <!-- Generator: Sketch 3.1 (8751) - http://www.bohemiancoding.com/sketch -->
    <title>Group</title>
    <desc>Created with Sketch.</desc>
    <defs></defs>
    <g id="Page-1" stroke="none" stroke-width="1" fill="none" fill-rule="evenodd" sketch:type="MSPage">
        <g id="Artboard-11" sketch:type="MSArtboardGroup" transform="translate(-38.000000, -16.000000)">
            <g id="Group" sketch:type="MSLayerGroup" transform="translate(41.000000, 18.250000)">
                <path d="M22,70 L16,70 C7.163444,70 0,62.836556 0,54 C0,46.4643945 5.20945281,40.145522 12.2234615,38.4482792 C12.075845,37.1526162 12,35.8351654 12,34.5 C12,15.4461761 27.4461761,0 46.5,0 C61.5379011,0 74.3286407,9.62124197 79.0523533,23.0438604 C79.531172,23.0147614 80.0138621,23 80.5,23 C93.4786916,23 104,33.5213084 104,46.5 C104,59.311612 93.7478376,69.7287031 81,69.9947863 L81,69.9947863 L81,70 L75,70 L75,64.4992147 C75,53.7300958 66.2778204,45 55.4905487,45 L41.5094513,45 C30.7346789,45 22,53.7382212 22,64.4992147 L22,70 Z" id="Oval-1" fill="#FFFFFF" sketch:type="MSShapeGroup"></path>
                <rect id="Rectangle-41" fill="#FFFFFF" sketch:type="MSShapeGroup" x="31.8164468" y="51" width="28.1549256" height="3.63289362" rx="40"></rect>
                <rect id="Rectangle-42" fill="#FFFFFF" sketch:type="MSShapeGroup" x="41.8069043" y="58.3575638" width="28.1549256" height="3.63289362" rx="40"></rect>
                <rect id="Rectangle-43" fill="#FFFFFF" sketch:type="MSShapeGroup" x="30" y="65.7151277" width="28.1549256" height="3.63289362" rx="40"></rect>
                <g id="Oval-4-+-Oval-5-+-Oval-7" transform="translate(58.000000, 30.000000) rotate(343.000000) translate(-58.000000, -30.000000) translate(52.500000, 24.500000)" sketch:type="MSShapeGroup">
                    <circle id="Oval-4" fill="#DDDCDC" cx="5.5" cy="5.5" r="5.5"></circle>
                    <circle id="Oval-5" fill="#A4A4A4" cx="5.62023781" cy="5.54104817" r="3"></circle>
                    <circle id="Oval-6" fill="#FFFFFF" cx="7.73782854" cy="4.75423023" r="1"></circle>
                </g>
                <g id="Oval-4-+-Oval-5-+-Oval-8" transform="translate(41.000000, 30.000000) rotate(343.000000) translate(-41.000000, -30.000000) translate(35.500000, 24.500000)" sketch:type="MSShapeGroup">
                    <circle id="Oval-4" fill="#DDDCDC" cx="5.5" cy="5.5" r="5.5"></circle>
                    <circle id="Oval-5" fill="#A4A4A4" cx="5.62023781" cy="5.54104817" r="3"></circle>
                    <circle id="Oval-6" fill="#FFFFFF" cx="7.73782854" cy="4.75423023" r="1"></circle>
                </g>
            </g>
        </g>
    </g>
</svg>