<?xml version="1.0" encoding="UTF-8" standalone="no"?>
<svg width="112px" height="87px" viewBox="0 0 112 87" version="1.1" xmlns="http://www.w3.org/2000/svg" xmlns:xlink="http://www.w3.org/1999/xlink" xmlns:sketch="http://www.bohemiancoding.com/sketch/ns">
    <!-- Generator: Sketch 3.1 (8751) - http://www.bohemiancoding.com/sketch -->
    <title>Group</title>
    <desc>Created with Sketch.</desc>
    <defs>
        <filter x="-50%" y="-50%" width="200%" height="200%" filterUnits="objectBoundingBox" id="filter-1">
            <feOffset dx="0" dy="2" in="SourceAlpha" result="shadowOffsetOuter1"></feOffset>
            <feGaussianBlur stdDeviation="1" in="shadowOffsetOuter1" result="shadowBlurOuter1"></feGaussianBlur>
            <feColorMatrix values="0 0 0 0 0   0 0 0 0 0   0 0 0 0 0  0 0 0 0.35 0" in="shadowBlurOuter1" type="matrix" result="shadowMatrixOuter1"></feColorMatrix>
            <feMerge>
                <feMergeNode in="shadowMatrixOuter1"></feMergeNode>
                <feMergeNode in="SourceGraphic"></feMergeNode>
            </feMerge>
        </filter>
        <path id="path-2" d="M52.5,81 C62.1649831,81 70,73.1090187 70,63.375 C70,53.6409813 52.5,37 52.5,37 C52.5,37 35,53.6409813 35,63.375 C35,73.1090187 42.8350169,81 52.5,81 Z"></path>
        <filter x="-50%" y="-50%" width="200%" height="200%" filterUnits="objectBoundingBox" id="filter-3">
            <feOffset dx="0" dy="1" in="SourceAlpha" result="shadowOffsetOuter1"></feOffset>
            <feGaussianBlur stdDeviation="0.5" in="shadowOffsetOuter1" result="shadowBlurOuter1"></feGaussianBlur>
            <feColorMatrix values="0 0 0 0 0   0 0 0 0 0   0 0 0 0 0  0 0 0 0.35 0" in="shadowBlurOuter1" type="matrix" result="shadowMatrixOuter1"></feColorMatrix>
            <feMerge>
                <feMergeNode in="shadowMatrixOuter1"></feMergeNode>
                <feMergeNode in="SourceGraphic"></feMergeNode>
            </feMerge>
        </filter>
        <path id="path-4" d="M68.5,71 C72.0898509,71 75,68.040882 75,64.390625 C75,60.740368 68.5,53 68.5,53 C68.5,53 62,60.740368 62,64.390625 C62,68.040882 64.9101491,71 68.5,71 Z"></path>
    </defs>
    <g id="Page-1" stroke="none" stroke-width="1" fill="none" fill-rule="evenodd" sketch:type="MSPage">
        <g id="Artboard-13" sketch:type="MSArtboardGroup" transform="translate(-37.000000, -16.000000)">
            <g id="Group" sketch:type="MSLayerGroup" transform="translate(41.000000, 18.000000)">
                <g id="Oval-1-+-Oval-2" transform="translate(0.000000, 0.500000)" fill="#FFFFFF" sketch:type="MSShapeGroup">
                    <path d="M88.3539823,63.9422434 C97.1118603,63.2064246 104,55.5312231 104,46.1714286 C104,36.7558405 97.0294954,29.044989 88.1971675,28.388196 C86.6039063,12.4487524 73.0662681,0 56.6017699,0 C42.9323743,0 31.2804323,8.58079363 26.806416,20.615934 C25.2862873,20.2873713 23.7077388,20.1142857 22.0884956,20.1142857 C9.88935632,20.1142857 0,29.9384375 0,42.0571429 C0,54.1758482 9.88935632,64 22.0884956,64 L88.3539823,64 L88.3539823,63.9422434 Z" id="Oval-1"></path>
                </g>
                <g id="Oval-4-+-Oval-5-+-Oval-9-+-Oval-4-+-Oval-5-+-Oval-8" transform="translate(35.000000, 18.000000)" sketch:type="MSShapeGroup">
                    <g id="Oval-4-+-Oval-5-+-Oval-9" transform="translate(7.500000, 7.500000) rotate(231.000000) translate(-7.500000, -7.500000) translate(2.000000, 2.000000)">
                        <ellipse id="Oval-4" fill="#DDDCDC" cx="5.5" cy="5.5" rx="5.5" ry="5.5"></ellipse>
                        <ellipse id="Oval-5" fill="#A4A4A4" cx="4" cy="4" rx="3" ry="3"></ellipse>
                        <ellipse id="Oval-6" fill="#FFFFFF" cx="2" cy="3" rx="1" ry="1"></ellipse>
                    </g>
                    <g id="Oval-4-+-Oval-5-+-Oval-8" transform="translate(26.750000, 7.500000) rotate(231.000000) translate(-26.750000, -7.500000) translate(21.250000, 2.000000)">
                        <ellipse id="Oval-4" fill="#DDDCDC" cx="5.5" cy="5.5" rx="5.5" ry="5.5"></ellipse>
                        <ellipse id="Oval-5" fill="#A4A4A4" cx="4" cy="4" rx="3" ry="3"></ellipse>
                        <ellipse id="Oval-6" fill="#FFFFFF" cx="2" cy="3" rx="1" ry="1"></ellipse>
                    </g>
                </g>
                <g id="Oval-119" filter="url(#filter-1)">
                    <use fill="none" sketch:type="MSShapeGroup" xlink:href="#path-2"></use>
                    <use fill="#94CFFA" fill-rule="evenodd" xlink:href="#path-2"></use>
                </g>
                <g id="Oval-120" filter="url(#filter-3)">
                    <use fill="none" sketch:type="MSShapeGroup" xlink:href="#path-4"></use>
                    <use fill="#73B6E5" fill-rule="evenodd" xlink:href="#path-4"></use>
                </g>
            </g>
        </g>
    </g>
</svg>