<?xml version="1.0" encoding="UTF-8" standalone="no"?>
<svg width="112px" height="100px" viewBox="0 0 112 100" version="1.1" xmlns="http://www.w3.org/2000/svg" xmlns:xlink="http://www.w3.org/1999/xlink" xmlns:sketch="http://www.bohemiancoding.com/sketch/ns">
    <!-- Generator: Sketch 3.1 (8751) - http://www.bohemiancoding.com/sketch -->
    <title>Group</title>
    <desc>Created with Sketch.</desc>
    <defs>
        <filter x="-50%" y="-50%" width="200%" height="200%" filterUnits="objectBoundingBox" id="filter-1">
            <feOffset dx="0" dy="2" in="SourceAlpha" result="shadowOffsetOuter1"></feOffset>
            <feGaussianBlur stdDeviation="2" in="shadowOffsetOuter1" result="shadowBlurOuter1"></feGaussianBlur>
            <feColorMatrix values="0 0 0 0 0   0 0 0 0 0   0 0 0 0 0  0 0 0 0.35 0" in="shadowBlurOuter1" type="matrix" result="shadowMatrixOuter1"></feColorMatrix>
            <feMerge>
                <feMergeNode in="shadowMatrixOuter1"></feMergeNode>
                <feMergeNode in="SourceGraphic"></feMergeNode>
            </feMerge>
        </filter>
        <filter x="-50%" y="-50%" width="200%" height="200%" filterUnits="objectBoundingBox" id="filter-2">
            <feOffset dx="0" dy="2" in="SourceAlpha" result="shadowOffsetOuter1"></feOffset>
            <feGaussianBlur stdDeviation="2" in="shadowOffsetOuter1" result="shadowBlurOuter1"></feGaussianBlur>
            <feColorMatrix values="0 0 0 0 0   0 0 0 0 0   0 0 0 0 0  0 0 0 0.35 0" in="shadowBlurOuter1" type="matrix" result="shadowMatrixOuter1"></feColorMatrix>
            <feMerge>
                <feMergeNode in="shadowMatrixOuter1"></feMergeNode>
                <feMergeNode in="SourceGraphic"></feMergeNode>
            </feMerge>
        </filter>
        <filter x="-50%" y="-50%" width="200%" height="200%" filterUnits="objectBoundingBox" id="filter-3">
            <feOffset dx="0" dy="2" in="SourceAlpha" result="shadowOffsetOuter1"></feOffset>
            <feGaussianBlur stdDeviation="2" in="shadowOffsetOuter1" result="shadowBlurOuter1"></feGaussianBlur>
            <feColorMatrix values="0 0 0 0 0   0 0 0 0 0   0 0 0 0 0  0 0 0 0.35 0" in="shadowBlurOuter1" type="matrix" result="shadowMatrixOuter1"></feColorMatrix>
            <feMerge>
                <feMergeNode in="shadowMatrixOuter1"></feMergeNode>
                <feMergeNode in="SourceGraphic"></feMergeNode>
            </feMerge>
        </filter>
    </defs>
    <g id="Page-1" stroke="none" stroke-width="1" fill="none" fill-rule="evenodd" sketch:type="MSPage">
        <g id="Artboard-14" sketch:type="MSArtboardGroup" transform="translate(-37.000000, -9.000000)">
            <g id="Group" sketch:type="MSLayerGroup" transform="translate(41.000000, 11.000000)">
                <g id="Oval-1-+-Oval-2" fill="#DDDDDD" sketch:type="MSShapeGroup">
                    <path d="M81,69.9947863 C93.7478376,69.7287031 104,59.311612 104,46.5 C104,33.5213084 93.4786916,23 80.5,23 C80.0138621,23 79.531172,23.0147614 79.0523533,23.0438604 C74.3286407,9.62124197 61.5379011,0 46.5,0 C27.4461761,0 12,15.4461761 12,34.5 C12,35.8351654 12.075845,37.1526162 12.2234615,38.4482792 C5.20945281,40.145522 0,46.4643945 0,54 C0,62.836556 7.163444,70 16,70 L81,70 L81,69.9947863 Z" id="Oval-1"></path>
                </g>
                <g id="Oval-4-+-Oval-5-+-Oval-6" transform="translate(40.500000, 26.000000) rotate(231.000000) translate(-40.500000, -26.000000) translate(35.000000, 20.500000)" sketch:type="MSShapeGroup">
                    <circle id="Oval-4" fill="#FFFFFF" cx="5.5" cy="5.5" r="5.5"></circle>
                    <circle id="Oval-5" fill="#A4A4A4" cx="4" cy="4" r="3"></circle>
                    <circle id="Oval-6" fill="#FFFFFF" cx="2" cy="3" r="1"></circle>
                </g>
                <g id="Oval-4-+-Oval-5-+-Oval-7" transform="translate(60.500000, 26.000000) rotate(231.000000) translate(-60.500000, -26.000000) translate(55.000000, 20.500000)" sketch:type="MSShapeGroup">
                    <circle id="Oval-4" fill="#FFFFFF" cx="5.5" cy="5.5" r="5.5"></circle>
                    <circle id="Oval-5" fill="#A4A4A4" cx="4" cy="4" r="3"></circle>
                    <circle id="Oval-6" fill="#FFFFFF" cx="2" cy="3" r="1"></circle>
                </g>
                <g id="Oval-136-+-Oval-137-+-Oval-138" transform="translate(26.000000, 42.000000)" fill="#FFFFFF" sketch:type="MSShapeGroup">
                    <circle id="Oval-136" filter="url(#filter-1)" transform="translate(26.500000, 23.500000) scale(-1, 1) translate(-26.500000, -23.500000) " cx="26.5" cy="23.5" r="23.5"></circle>
                    <circle id="Oval-137" filter="url(#filter-2)" transform="translate(42.000000, 37.500000) scale(-1, 1) translate(-42.000000, -37.500000) " cx="42" cy="37.5" r="9.5"></circle>
                    <circle id="Oval-138" filter="url(#filter-3)" transform="translate(5.000000, 45.500000) scale(-1, 1) translate(-5.000000, -45.500000) " cx="5" cy="45.5" r="4.5"></circle>
                </g>
            </g>
        </g>
    </g>
</svg>